REM DIRINDEX 1\2\4,1\2\5,1\3\6,1\3\7,1\3\8
REM DIRNAME folder01,folder02,folder03,folder04,folder05,folder06,folder07,folder08
TITLE ""
FILE "LV1_002_WORDS.mp3" MP3
  TRACK 01 AUDIO
    TITLE "0:"
    INDEX 01 00:00:00
  TRACK 02 AUDIO
    TITLE "6:cjc094_0043"
    INDEX 01 00:00:01
  TRACK 03 AUDIO
    TITLE "0:"
    INDEX 01 00:01:40
  TRACK 04 AUDIO
    TITLE "7:cjc094_0044"
    INDEX 01 00:02:26
  TRACK 05 AUDIO
    TITLE "0:"
    INDEX 01 00:03:31
  TRACK 06 AUDIO
    TITLE "8:cjc094_0045"
    INDEX 01 00:03:51
  TRACK 07 AUDIO
    TITLE "0:"
    INDEX 01 00:04:64
  TRACK 08 AUDIO
    TITLE "7:cjc094_0046"
    INDEX 01 00:05:38
  TRACK 09 AUDIO
    TITLE "0:"
    INDEX 01 00:06:41
  TRACK 10 AUDIO
    TITLE "8:cjc094_0047"
    INDEX 01 00:06:59
  TRACK 11 AUDIO
    TITLE "0:"
    INDEX 01 00:07:41
  TRACK 12 AUDIO
    TITLE "7:cjc094_0048"
    INDEX 01 00:08:13
  TRACK 13 AUDIO
    TITLE "0:"
    INDEX 01 00:09:20
  TRACK 14 AUDIO
    TITLE "8:cjc094_0049"
    INDEX 01 00:09:36
  TRACK 15 AUDIO
    TITLE "0:"
    INDEX 01 00:11:68
  TRACK 16 AUDIO
    TITLE "7:cjc094_0050"
    INDEX 01 00:12:42
  TRACK 17 AUDIO
    TITLE "0:"
    INDEX 01 00:13:35
  TRACK 18 AUDIO
    TITLE "8:cjc094_0051"
    INDEX 01 00:13:63
  TRACK 19 AUDIO
    TITLE "0:"
    INDEX 01 00:16:40
  TRACK 20 AUDIO
    TITLE "7:cjc094_0052"
    INDEX 01 00:17:18
  TRACK 21 AUDIO
    TITLE "0:"
    INDEX 01 00:18:13
  TRACK 22 AUDIO
    TITLE "8:cjc094_0053"
    INDEX 01 00:18:33
  TRACK 23 AUDIO
    TITLE "0:"
    INDEX 01 00:20:41
  TRACK 24 AUDIO
    TITLE "7:cjc094_0054"
    INDEX 01 00:21:21
  TRACK 25 AUDIO
    TITLE "0:"
    INDEX 01 00:22:17
  TRACK 26 AUDIO
    TITLE "8:cjc094_0055"
    INDEX 01 00:22:30
  TRACK 27 AUDIO
    TITLE "0:"
    INDEX 01 00:24:20
  TRACK 28 AUDIO
    TITLE "7:cjc094_0056"
    INDEX 01 00:24:71
  TRACK 29 AUDIO
    TITLE "0:"
    INDEX 01 00:25:64
  TRACK 30 AUDIO
    TITLE "8:cjc094_0057"
    INDEX 01 00:26:05
  TRACK 31 AUDIO
    TITLE "0:"
    INDEX 01 00:27:00
  TRACK 32 AUDIO
    TITLE "7:cjc094_0058"
    INDEX 01 00:27:51
  TRACK 33 AUDIO
    TITLE "0:"
    INDEX 01 00:28:49
  TRACK 34 AUDIO
    TITLE "8:cjc094_0059"
    INDEX 01 00:28:68
  TRACK 35 AUDIO
    TITLE "0:"
    INDEX 01 00:29:70
  TRACK 36 AUDIO
    TITLE "7:cjc094_0060"
    INDEX 01 00:30:54
  TRACK 37 AUDIO
    TITLE "0:"
    INDEX 01 00:31:53
  TRACK 38 AUDIO
    TITLE "8:cjc094_0061"
    INDEX 01 00:31:71
  TRACK 39 AUDIO
    TITLE "0:"
    INDEX 01 00:32:64
  TRACK 40 AUDIO
    TITLE "7:cjc094_0062"
    INDEX 01 00:33:42
  TRACK 41 AUDIO
    TITLE "0:"
    INDEX 01 00:34:45
  TRACK 42 AUDIO
    TITLE "8:cjc094_0063"
    INDEX 01 00:34:69
  TRACK 43 AUDIO
    TITLE "0:"
    INDEX 01 00:35:49
  TRACK 44 AUDIO
    TITLE "7:cjc094_0064"
    INDEX 01 00:36:29
  TRACK 45 AUDIO
    TITLE "0:"
    INDEX 01 00:37:34
  TRACK 46 AUDIO
    TITLE "8:cjc094_0065"
    INDEX 01 00:37:59
  TRACK 47 AUDIO
    TITLE "0:"
    INDEX 01 00:38:59
  TRACK 48 AUDIO
    TITLE "7:cjc094_0066"
    INDEX 01 00:39:43
  TRACK 49 AUDIO
    TITLE "0:"
    INDEX 01 00:40:40
  TRACK 50 AUDIO
    TITLE "8:cjc094_0067"
    INDEX 01 00:40:64
  TRACK 51 AUDIO
    TITLE "0:"
    INDEX 01 00:41:55
  TRACK 52 AUDIO
    TITLE "7:cjc094_0068"
    INDEX 01 00:42:31
  TRACK 53 AUDIO
    TITLE "0:"
    INDEX 01 00:43:44
  TRACK 54 AUDIO
    TITLE "8:cjc094_0069"
    INDEX 01 00:43:60
  TRACK 55 AUDIO
    TITLE "0:"
    INDEX 01 00:44:63
  TRACK 56 AUDIO
    TITLE "7:cjc094_0070"
    INDEX 01 00:45:41
  TRACK 57 AUDIO
    TITLE "0:"
    INDEX 01 00:46:58
  TRACK 58 AUDIO
    TITLE "8:cjc094_0071"
    INDEX 01 00:47:01
  TRACK 59 AUDIO
    TITLE "0:"
    INDEX 01 00:47:70
  TRACK 60 AUDIO
    TITLE "7:cjc094_0072"
    INDEX 01 00:48:34
  TRACK 61 AUDIO
    TITLE "0:"
    INDEX 01 00:49:43
  TRACK 62 AUDIO
    TITLE "8:cjc094_0073"
    INDEX 01 00:49:61
  TRACK 63 AUDIO
    TITLE "0:"
    INDEX 01 00:50:64
  TRACK 64 AUDIO
    TITLE "7:cjc094_0074"
    INDEX 01 00:51:40
  TRACK 65 AUDIO
    TITLE "0:"
    INDEX 01 00:52:49
  TRACK 66 AUDIO
    TITLE "8:cjc094_0075"
    INDEX 01 00:52:63
  TRACK 67 AUDIO
    TITLE "0:"
    INDEX 01 00:53:58
  TRACK 68 AUDIO
    TITLE "7:cjc094_0076"
    INDEX 01 00:54:32
  TRACK 69 AUDIO
    TITLE "0:"
    INDEX 01 00:55:50
  TRACK 70 AUDIO
    TITLE "8:cjc094_0077"
    INDEX 01 00:55:67
  TRACK 71 AUDIO
    TITLE "0:"
    INDEX 01 00:56:67
  TRACK 72 AUDIO
    TITLE "7:cjc094_0078"
    INDEX 01 00:57:52
  TRACK 73 AUDIO
    TITLE "0:"
    INDEX 01 00:58:50
  TRACK 74 AUDIO
    TITLE "8:cjc094_0079"
    INDEX 01 00:58:62
  TRACK 75 AUDIO
    TITLE "0:"
    INDEX 01 01:02:06
  TRACK 76 AUDIO
    TITLE "7:cjc094_0080"
    INDEX 01 01:02:50
  TRACK 77 AUDIO
    TITLE "0:"
    INDEX 01 01:03:49
  TRACK 78 AUDIO
    TITLE "8:cjc094_0081"
    INDEX 01 01:03:71
  TRACK 79 AUDIO
    TITLE "0:"
    INDEX 01 01:05:40
  TRACK 80 AUDIO
    TITLE "7:cjc094_0082"
    INDEX 01 01:06:22
  TRACK 81 AUDIO
    TITLE "0:"
    INDEX 01 01:07:64
  TRACK 82 AUDIO
    TITLE "8:cjc094_0083"
    INDEX 01 01:08:05
  TRACK 83 AUDIO
    TITLE "0:"
    INDEX 01 01:09:46
  TRACK 84 AUDIO
    TITLE "7:cjc094_0084"
    INDEX 01 01:10:24
  TRACK 85 AUDIO
    TITLE "0:"
    INDEX 01 01:11:60
  TRACK 86 AUDIO
    TITLE "8:cjc094_0085"
    INDEX 01 01:12:05
  TRACK 87 AUDIO
    TITLE "0:"
    INDEX 01 01:13:22
  TRACK 88 AUDIO
    TITLE "7:cjc094_0086"
    INDEX 01 01:14:06
  TRACK 89 AUDIO
    TITLE "0:"
    INDEX 01 01:15:07
  TRACK 90 AUDIO
    TITLE "8:cjc094_0087"
    INDEX 01 01:15:21
  TRACK 91 AUDIO
    TITLE "0:"
    INDEX 01 01:18:19
  TRACK 92 AUDIO
    TITLE "7:cjc094_0088"
    INDEX 01 01:18:74
  TRACK 93 AUDIO
    TITLE "0:"
    INDEX 01 01:20:04
  TRACK 94 AUDIO
    TITLE "8:cjc094_0089"
    INDEX 01 01:20:22
  TRACK 95 AUDIO
    TITLE "0:"
    INDEX 01 01:21:25
  TRACK 96 AUDIO
    TITLE "7:cjc094_0090"
    INDEX 01 01:22:01
  TRACK 97 AUDIO
    TITLE "0:"
    INDEX 01 01:22:68
  TRACK 98 AUDIO
    TITLE "8:cjc094_0091"
    INDEX 01 01:23:09
  TRACK 99 AUDIO
    TITLE "0:"
    INDEX 01 01:23:65
  TRACK 100 AUDIO
    TITLE "7:cjc094_0092"
    INDEX 01 01:24:39
  TRACK 101 AUDIO
    TITLE "0:"
    INDEX 01 01:25:35
  TRACK 102 AUDIO
    TITLE "8:cjc094_0093"
    INDEX 01 01:25:49
  TRACK 103 AUDIO
    TITLE "0:"
    INDEX 01 01:26:58
  TRACK 104 AUDIO
    TITLE "7:cjc094_0094"
    INDEX 01 01:27:32
  TRACK 105 AUDIO
    TITLE "0:"
    INDEX 01 01:28:35
  TRACK 106 AUDIO
    TITLE "8:cjc094_0095"
    INDEX 01 01:28:47
  TRACK 107 AUDIO
    TITLE "0:"
    INDEX 01 01:31:55
  TRACK 108 AUDIO
    TITLE "7:cjc094_0096"
    INDEX 01 01:32:29
  TRACK 109 AUDIO
    TITLE "0:"
    INDEX 01 01:33:33
  TRACK 110 AUDIO
    TITLE "8:cjc094_0097"
    INDEX 01 01:33:46
  TRACK 111 AUDIO
    TITLE "0:"
    INDEX 01 01:34:63
